<?xml version="1.0" standalone="no"?>
<!DOCTYPE svg PUBLIC "-//W3C//DTD SVG 20010904//EN"
 "http://www.w3.org/TR/2001/REC-SVG-20010904/DTD/svg10.dtd">
<svg version="1.0" xmlns="http://www.w3.org/2000/svg"
 width="512.000000pt" height="512.000000pt" viewBox="0 0 512.000000 512.000000"
 preserveAspectRatio="xMidYMid meet">

<g transform="translate(0.000000,512.000000) scale(0.100000,-0.100000)"
fill="#ffffff" stroke="none">
<path d="M270 5104 c-230 -61 -340 -336 -218 -544 12 -19 462 -477 1002 -1017
l981 -983 -986 -987 c-760 -761 -991 -999 -1008 -1034 -70 -150 -43 -318 69
-429 110 -111 281 -138 428 -69 36 17 270 244 1035 1008 l987 986 988 -986
c764 -764 998 -991 1034 -1008 148 -70 318 -42 428 69 111 110 138 281 69 428
-17 36 -244 270 -1008 1034 l-986 988 986 988 c764 764 991 998 1008 1034 70
148 42 317 -69 428 -111 112 -279 139 -429 69 -35 -17 -273 -248 -1034 -1008
l-987 -986 -983 981 c-540 540 -998 990 -1017 1002 -86 50 -190 63 -290 36z"/>
</g>
</svg>
